<mxfile host="app.diagrams.net" modified="2024-07-01T07:03:38.547Z" agent="Mozilla/5.0 (Windows NT 10.0; Win64; x64) AppleWebKit/537.36 (KHTML, like Gecko) Chrome/126.0.0.0 Safari/537.36 Edg/126.0.0.0" etag="i5UhJo8WyKBCzPpGP5yK" version="24.6.2" type="device">
  <diagram name="Page-1" id="03018318-947c-dd8e-b7a3-06fadd420f32">
    <mxGraphModel dx="1902" dy="1725" grid="1" gridSize="10" guides="1" tooltips="1" connect="1" arrows="1" fold="1" page="1" pageScale="1" pageWidth="1100" pageHeight="850" background="#ffffff" math="0" shadow="0">
      <root>
        <mxCell id="0" />
        <mxCell id="1" parent="0" />
        <mxCell id="677b7b8949515195-1" value="" style="whiteSpace=wrap;html=1;rounded=0;shadow=0;labelBackgroundColor=none;strokeColor=#000000;strokeWidth=1;fillColor=none;fontFamily=Verdana;fontSize=12;fontColor=#000000;align=center;comic=1;" parent="1" vertex="1">
          <mxGeometry x="20" y="20" width="1060" height="810" as="geometry" />
        </mxCell>
        <mxCell id="677b7b8949515195-2" value="LOGO" style="whiteSpace=wrap;html=1;rounded=0;shadow=0;labelBackgroundColor=none;strokeWidth=1;fontFamily=Verdana;fontSize=28;align=center;comic=1;" parent="1" vertex="1">
          <mxGeometry x="455" y="60" width="190" height="50" as="geometry" />
        </mxCell>
        <mxCell id="677b7b8949515195-9" value="" style="line;strokeWidth=1;html=1;rounded=0;shadow=0;labelBackgroundColor=none;fillColor=none;fontFamily=Verdana;fontSize=14;fontColor=#000000;align=center;comic=1;" parent="1" vertex="1">
          <mxGeometry x="20" y="140" width="1060" height="10" as="geometry" />
        </mxCell>
        <mxCell id="677b7b8949515195-26" value="" style="whiteSpace=wrap;html=1;rounded=0;shadow=0;labelBackgroundColor=none;strokeWidth=1;fillColor=none;fontFamily=Verdana;fontSize=12;align=center;comic=1;" parent="1" vertex="1">
          <mxGeometry x="30" y="690" width="1040" height="130" as="geometry" />
        </mxCell>
        <mxCell id="677b7b8949515195-42" value="We accept" style="text;html=1;points=[];align=left;verticalAlign=top;spacingTop=-4;fontSize=14;fontFamily=Verdana" parent="1" vertex="1">
          <mxGeometry x="140" y="699.5" width="170" height="20" as="geometry" />
        </mxCell>
        <mxCell id="y5IsJQyIRW_9o38pP9EZ-2" value="" style="html=1;verticalLabelPosition=bottom;align=center;labelBackgroundColor=#ffffff;verticalAlign=top;strokeWidth=2;strokeColor=#0080F0;shadow=0;dashed=0;shape=mxgraph.ios7.icons.shopping_cart;" parent="1" vertex="1">
          <mxGeometry x="1015" y="172.25" width="30" height="25.5" as="geometry" />
        </mxCell>
        <mxCell id="y5IsJQyIRW_9o38pP9EZ-4" value="" style="verticalLabelPosition=bottom;shadow=0;dashed=0;align=center;html=1;verticalAlign=top;strokeWidth=1;shape=mxgraph.mockup.graphics.simpleIcon;strokeColor=#999999;rounded=0;labelBackgroundColor=none;fontFamily=Verdana;fontSize=14;fontColor=#000000;comic=1;" parent="1" vertex="1">
          <mxGeometry x="579" y="475" width="225" height="150" as="geometry" />
        </mxCell>
        <mxCell id="y5IsJQyIRW_9o38pP9EZ-10" value="" style="verticalLabelPosition=bottom;shadow=0;dashed=0;align=center;html=1;verticalAlign=top;strokeWidth=1;shape=mxgraph.mockup.graphics.simpleIcon;strokeColor=#999999;rounded=0;labelBackgroundColor=none;fontFamily=Verdana;fontSize=14;fontColor=#000000;comic=1;" parent="1" vertex="1">
          <mxGeometry x="315" y="475" width="225" height="150" as="geometry" />
        </mxCell>
        <mxCell id="y5IsJQyIRW_9o38pP9EZ-11" value="" style="verticalLabelPosition=bottom;shadow=0;dashed=0;align=center;html=1;verticalAlign=top;strokeWidth=1;shape=mxgraph.mockup.graphics.simpleIcon;strokeColor=#999999;rounded=0;labelBackgroundColor=none;fontFamily=Verdana;fontSize=14;fontColor=#000000;comic=1;" parent="1" vertex="1">
          <mxGeometry x="49" y="475" width="225" height="150" as="geometry" />
        </mxCell>
        <mxCell id="y5IsJQyIRW_9o38pP9EZ-12" value="" style="verticalLabelPosition=bottom;shadow=0;dashed=0;align=center;html=1;verticalAlign=top;strokeWidth=1;shape=mxgraph.mockup.graphics.simpleIcon;strokeColor=#999999;rounded=0;labelBackgroundColor=none;fontFamily=Verdana;fontSize=14;fontColor=#000000;comic=1;" parent="1" vertex="1">
          <mxGeometry x="579" y="236" width="225" height="150" as="geometry" />
        </mxCell>
        <mxCell id="y5IsJQyIRW_9o38pP9EZ-13" value="" style="verticalLabelPosition=bottom;shadow=0;dashed=0;align=center;html=1;verticalAlign=top;strokeWidth=1;shape=mxgraph.mockup.graphics.simpleIcon;strokeColor=#999999;rounded=0;labelBackgroundColor=none;fontFamily=Verdana;fontSize=14;fontColor=#000000;comic=1;" parent="1" vertex="1">
          <mxGeometry x="315" y="236" width="225" height="150" as="geometry" />
        </mxCell>
        <mxCell id="y5IsJQyIRW_9o38pP9EZ-14" value="" style="verticalLabelPosition=bottom;shadow=0;dashed=0;align=center;html=1;verticalAlign=top;strokeWidth=1;shape=mxgraph.mockup.graphics.simpleIcon;strokeColor=#999999;rounded=0;labelBackgroundColor=none;fontFamily=Verdana;fontSize=14;fontColor=#000000;comic=1;" parent="1" vertex="1">
          <mxGeometry x="49" y="236" width="225" height="150" as="geometry" />
        </mxCell>
        <mxCell id="y5IsJQyIRW_9o38pP9EZ-15" value="" style="dashed=0;outlineConnect=0;html=1;align=center;labelPosition=center;verticalLabelPosition=bottom;verticalAlign=top;shape=mxgraph.webicons.paypal;gradientColor=#DFDEDE" parent="1" vertex="1">
          <mxGeometry x="140" y="729.3" width="40" height="40.2" as="geometry" />
        </mxCell>
        <mxCell id="y5IsJQyIRW_9o38pP9EZ-16" value="" style="sketch=0;pointerEvents=1;shadow=0;dashed=0;html=1;strokeColor=none;fillColor=#505050;labelPosition=center;verticalLabelPosition=bottom;verticalAlign=top;outlineConnect=0;align=center;shape=mxgraph.office.concepts.credit_card;" parent="1" vertex="1">
          <mxGeometry x="140" y="779.5" width="50" height="31" as="geometry" />
        </mxCell>
        <mxCell id="y5IsJQyIRW_9o38pP9EZ-17" value="Contact us" style="text;html=1;points=[];align=left;verticalAlign=top;spacingTop=-4;fontSize=14;fontFamily=Verdana" parent="1" vertex="1">
          <mxGeometry x="880" y="699.5" width="170" height="20" as="geometry" />
        </mxCell>
        <mxCell id="y5IsJQyIRW_9o38pP9EZ-18" value="" style="dashed=0;outlineConnect=0;html=1;align=center;labelPosition=center;verticalLabelPosition=bottom;verticalAlign=top;shape=mxgraph.webicons.instagram;gradientColor=#DFDEDE" parent="1" vertex="1">
          <mxGeometry x="880" y="729.3" width="32.4" height="30" as="geometry" />
        </mxCell>
        <mxCell id="y5IsJQyIRW_9o38pP9EZ-19" value="" style="dashed=0;outlineConnect=0;html=1;align=center;labelPosition=center;verticalLabelPosition=bottom;verticalAlign=top;shape=mxgraph.webicons.facebook;fillColor=#6294E4;gradientColor=#1A2665" parent="1" vertex="1">
          <mxGeometry x="930" y="729.3" width="29.4" height="30" as="geometry" />
        </mxCell>
        <mxCell id="y5IsJQyIRW_9o38pP9EZ-20" value="" style="shape=image;html=1;verticalAlign=top;verticalLabelPosition=bottom;labelBackgroundColor=#ffffff;imageAspect=0;aspect=fixed;image=https://cdn2.iconfinder.com/data/icons/social-media-2285/512/1_Twitter3_colored_svg-128.png" parent="1" vertex="1">
          <mxGeometry x="880" y="769.5" width="32" height="32" as="geometry" />
        </mxCell>
        <mxCell id="y5IsJQyIRW_9o38pP9EZ-21" value="" style="shape=image;html=1;verticalAlign=top;verticalLabelPosition=bottom;labelBackgroundColor=#ffffff;imageAspect=0;aspect=fixed;image=https://cdn0.iconfinder.com/data/icons/logos-brands-7/512/TikTok_logo_app0-128.png" parent="1" vertex="1">
          <mxGeometry x="926.7" y="767.5" width="36" height="36" as="geometry" />
        </mxCell>
        <mxCell id="y5IsJQyIRW_9o38pP9EZ-25" value="&lt;span style=&quot;color: rgba(0, 0, 0, 0); font-family: monospace; font-size: 0px; text-align: start; text-wrap: nowrap;&quot;&gt;%3CmxGraphModel%3E%3Croot%3E%3CmxCell%20id%3D%220%22%2F%3E%3CmxCell%20id%3D%221%22%20parent%3D%220%22%2F%3E%3CmxCell%20id%3D%222%22%20value%3D%22%22%20style%3D%22rounded%3D0%3BwhiteSpace%3Dwrap%3Bhtml%3D1%3B%22%20vertex%3D%221%22%20parent%3D%221%22%3E%3CmxGeometry%20x%3D%221250%22%20y%3D%22245%22%20width%3D%22610%22%20height%3D%22160%22%20as%3D%22geometry%22%2F%3E%3C%2FmxCell%3E%3CmxCell%20id%3D%223%22%20value%3D%22%22%20style%3D%22verticalLabelPosition%3Dbottom%3Bshadow%3D0%3Bdashed%3D0%3Balign%3Dcenter%3Bhtml%3D1%3BverticalAlign%3Dtop%3BstrokeWidth%3D1%3Bshape%3Dmxgraph.mockup.graphics.simpleIcon%3BstrokeColor%3D%23999999%3Brounded%3D0%3BlabelBackgroundColor%3Dnone%3BfontFamily%3DVerdana%3BfontSize%3D14%3BfontColor%3D%23000000%3Bcomic%3D1%3B%22%20vertex%3D%221%22%20parent%3D%221%22%3E%3CmxGeometry%20x%3D%221280%22%20y%3D%22277%22%20width%3D%22140%22%20height%3D%2296%22%20as%3D%22geometry%22%2F%3E%3C%2FmxCell%3E%3C%2Froot%3E%3C%2FmxGraphModel%3E&lt;/span&gt;" style="whiteSpace=wrap;html=1;rounded=0;shadow=0;labelBackgroundColor=none;strokeColor=#000000;strokeWidth=1;fillColor=none;fontFamily=Verdana;fontSize=12;fontColor=#000000;align=center;comic=1;" parent="1" vertex="1">
          <mxGeometry x="1220" y="20" width="1060" height="810" as="geometry" />
        </mxCell>
        <mxCell id="y5IsJQyIRW_9o38pP9EZ-26" value="LOGO" style="whiteSpace=wrap;html=1;rounded=0;shadow=0;labelBackgroundColor=none;strokeWidth=1;fontFamily=Verdana;fontSize=28;align=center;comic=1;" parent="1" vertex="1">
          <mxGeometry x="1670" y="60" width="190" height="50" as="geometry" />
        </mxCell>
        <mxCell id="y5IsJQyIRW_9o38pP9EZ-30" value="" style="line;strokeWidth=1;html=1;rounded=0;shadow=0;labelBackgroundColor=none;fillColor=none;fontFamily=Verdana;fontSize=14;fontColor=#000000;align=center;comic=1;" parent="1" vertex="1">
          <mxGeometry x="1220" y="140" width="1060" height="10" as="geometry" />
        </mxCell>
        <mxCell id="y5IsJQyIRW_9o38pP9EZ-35" value="" style="whiteSpace=wrap;html=1;rounded=0;shadow=0;labelBackgroundColor=none;strokeWidth=1;fillColor=none;fontFamily=Verdana;fontSize=12;align=center;comic=1;" parent="1" vertex="1">
          <mxGeometry x="2040" y="245" width="230" height="310" as="geometry" />
        </mxCell>
        <mxCell id="y5IsJQyIRW_9o38pP9EZ-36" value="" style="whiteSpace=wrap;html=1;rounded=0;shadow=0;labelBackgroundColor=none;strokeWidth=1;fillColor=none;fontFamily=Verdana;fontSize=12;align=center;comic=1;" parent="1" vertex="1">
          <mxGeometry x="1230" y="690" width="1040" height="130" as="geometry" />
        </mxCell>
        <mxCell id="y5IsJQyIRW_9o38pP9EZ-37" value="We accept" style="text;html=1;points=[];align=left;verticalAlign=top;spacingTop=-4;fontSize=14;fontFamily=Verdana" parent="1" vertex="1">
          <mxGeometry x="1340" y="699.5" width="170" height="20" as="geometry" />
        </mxCell>
        <mxCell id="y5IsJQyIRW_9o38pP9EZ-38" value="Total Amount Article:" style="text;html=1;points=[];align=left;verticalAlign=top;spacingTop=-4;fontSize=14;fontFamily=Verdana" parent="1" vertex="1">
          <mxGeometry x="2061" y="312" width="170" height="20" as="geometry" />
        </mxCell>
        <mxCell id="y5IsJQyIRW_9o38pP9EZ-40" value="Total Amount:" style="text;html=1;points=[];align=left;verticalAlign=top;spacingTop=-4;fontSize=14;fontFamily=Verdana" parent="1" vertex="1">
          <mxGeometry x="2061" y="382" width="170" height="20" as="geometry" />
        </mxCell>
        <mxCell id="y5IsJQyIRW_9o38pP9EZ-44" value="&lt;font style=&quot;font-size: 18px;&quot;&gt;Order Overview&lt;/font&gt;" style="text;html=1;points=[];align=left;verticalAlign=top;spacingTop=-4;fontSize=14;fontFamily=Verdana" parent="1" vertex="1">
          <mxGeometry x="2060" y="265" width="60" height="20" as="geometry" />
        </mxCell>
        <mxCell id="y5IsJQyIRW_9o38pP9EZ-45" value="" style="html=1;verticalLabelPosition=bottom;align=center;labelBackgroundColor=#ffffff;verticalAlign=top;strokeWidth=2;strokeColor=#0080F0;shadow=0;dashed=0;shape=mxgraph.ios7.icons.shopping_cart;" parent="1" vertex="1">
          <mxGeometry x="2215" y="172.25" width="30" height="25.5" as="geometry" />
        </mxCell>
        <mxCell id="y5IsJQyIRW_9o38pP9EZ-52" value="" style="dashed=0;outlineConnect=0;html=1;align=center;labelPosition=center;verticalLabelPosition=bottom;verticalAlign=top;shape=mxgraph.webicons.paypal;gradientColor=#DFDEDE" parent="1" vertex="1">
          <mxGeometry x="1340" y="729.3" width="40" height="40.2" as="geometry" />
        </mxCell>
        <mxCell id="y5IsJQyIRW_9o38pP9EZ-53" value="" style="sketch=0;pointerEvents=1;shadow=0;dashed=0;html=1;strokeColor=none;fillColor=#505050;labelPosition=center;verticalLabelPosition=bottom;verticalAlign=top;outlineConnect=0;align=center;shape=mxgraph.office.concepts.credit_card;" parent="1" vertex="1">
          <mxGeometry x="1340" y="779.5" width="50" height="31" as="geometry" />
        </mxCell>
        <mxCell id="y5IsJQyIRW_9o38pP9EZ-54" value="Contact us" style="text;html=1;points=[];align=left;verticalAlign=top;spacingTop=-4;fontSize=14;fontFamily=Verdana" parent="1" vertex="1">
          <mxGeometry x="2080" y="699.5" width="170" height="20" as="geometry" />
        </mxCell>
        <mxCell id="y5IsJQyIRW_9o38pP9EZ-55" value="" style="dashed=0;outlineConnect=0;html=1;align=center;labelPosition=center;verticalLabelPosition=bottom;verticalAlign=top;shape=mxgraph.webicons.instagram;gradientColor=#DFDEDE" parent="1" vertex="1">
          <mxGeometry x="2080" y="729.3" width="32.4" height="30" as="geometry" />
        </mxCell>
        <mxCell id="y5IsJQyIRW_9o38pP9EZ-56" value="" style="dashed=0;outlineConnect=0;html=1;align=center;labelPosition=center;verticalLabelPosition=bottom;verticalAlign=top;shape=mxgraph.webicons.facebook;fillColor=#6294E4;gradientColor=#1A2665" parent="1" vertex="1">
          <mxGeometry x="2130" y="729.3" width="29.4" height="30" as="geometry" />
        </mxCell>
        <mxCell id="y5IsJQyIRW_9o38pP9EZ-57" value="" style="shape=image;html=1;verticalAlign=top;verticalLabelPosition=bottom;labelBackgroundColor=#ffffff;imageAspect=0;aspect=fixed;image=https://cdn2.iconfinder.com/data/icons/social-media-2285/512/1_Twitter3_colored_svg-128.png" parent="1" vertex="1">
          <mxGeometry x="2080" y="769.5" width="32" height="32" as="geometry" />
        </mxCell>
        <mxCell id="y5IsJQyIRW_9o38pP9EZ-58" value="" style="shape=image;html=1;verticalAlign=top;verticalLabelPosition=bottom;labelBackgroundColor=#ffffff;imageAspect=0;aspect=fixed;image=https://cdn0.iconfinder.com/data/icons/logos-brands-7/512/TikTok_logo_app0-128.png" parent="1" vertex="1">
          <mxGeometry x="2126.7" y="767.5" width="36" height="36" as="geometry" />
        </mxCell>
        <mxCell id="y5IsJQyIRW_9o38pP9EZ-61" value="&lt;font style=&quot;font-size: 24px;&quot;&gt;Homepage&lt;/font&gt;" style="text;html=1;align=center;verticalAlign=middle;resizable=0;points=[];autosize=1;strokeColor=none;fillColor=none;" parent="1" vertex="1">
          <mxGeometry x="20" y="-20" width="140" height="40" as="geometry" />
        </mxCell>
        <mxCell id="y5IsJQyIRW_9o38pP9EZ-62" value="&lt;font style=&quot;font-size: 24px;&quot;&gt;Cart Page&lt;/font&gt;" style="text;html=1;align=center;verticalAlign=middle;resizable=0;points=[];autosize=1;strokeColor=none;fillColor=none;" parent="1" vertex="1">
          <mxGeometry x="1225" y="-20" width="130" height="40" as="geometry" />
        </mxCell>
        <mxCell id="y5IsJQyIRW_9o38pP9EZ-63" value="Buy" style="labelPosition=center;verticalLabelPosition=middle;align=center;html=1;shape=mxgraph.basic.button;dx=10;whiteSpace=wrap;" parent="1" vertex="1">
          <mxGeometry x="2065" y="590" width="180" height="50" as="geometry" />
        </mxCell>
        <mxCell id="y5IsJQyIRW_9o38pP9EZ-64" value="" style="rounded=0;whiteSpace=wrap;html=1;" parent="1" vertex="1">
          <mxGeometry x="1250" y="245" width="610" height="160" as="geometry" />
        </mxCell>
        <mxCell id="y5IsJQyIRW_9o38pP9EZ-51" value="" style="verticalLabelPosition=bottom;shadow=0;dashed=0;align=center;html=1;verticalAlign=top;strokeWidth=1;shape=mxgraph.mockup.graphics.simpleIcon;strokeColor=#999999;rounded=0;labelBackgroundColor=none;fontFamily=Verdana;fontSize=14;fontColor=#000000;comic=1;" parent="1" vertex="1">
          <mxGeometry x="1280" y="277" width="140" height="96" as="geometry" />
        </mxCell>
        <mxCell id="y5IsJQyIRW_9o38pP9EZ-65" value="" style="rounded=0;whiteSpace=wrap;html=1;" parent="1" vertex="1">
          <mxGeometry x="1250" y="437" width="610" height="160" as="geometry" />
        </mxCell>
        <mxCell id="y5IsJQyIRW_9o38pP9EZ-66" value="" style="verticalLabelPosition=bottom;shadow=0;dashed=0;align=center;html=1;verticalAlign=top;strokeWidth=1;shape=mxgraph.mockup.graphics.simpleIcon;strokeColor=#999999;rounded=0;labelBackgroundColor=none;fontFamily=Verdana;fontSize=14;fontColor=#000000;comic=1;" parent="1" vertex="1">
          <mxGeometry x="1280" y="469" width="140" height="96" as="geometry" />
        </mxCell>
        <mxCell id="y5IsJQyIRW_9o38pP9EZ-67" value="Loremipsum" style="text;html=1;align=center;verticalAlign=middle;whiteSpace=wrap;rounded=0;" parent="1" vertex="1">
          <mxGeometry x="1480" y="310" width="60" height="30" as="geometry" />
        </mxCell>
        <mxCell id="y5IsJQyIRW_9o38pP9EZ-68" value="Loremipsum" style="text;html=1;align=center;verticalAlign=middle;whiteSpace=wrap;rounded=0;" parent="1" vertex="1">
          <mxGeometry x="1480" y="502" width="60" height="30" as="geometry" />
        </mxCell>
        <mxCell id="y5IsJQyIRW_9o38pP9EZ-70" value="" style="verticalLabelPosition=bottom;shadow=0;dashed=0;align=center;html=1;verticalAlign=top;strokeWidth=1;shape=mxgraph.mockup.graphics.simpleIcon;strokeColor=#999999;rounded=0;labelBackgroundColor=none;fontFamily=Verdana;fontSize=14;fontColor=#000000;comic=1;" parent="1" vertex="1">
          <mxGeometry x="826.5" y="475" width="225" height="150" as="geometry" />
        </mxCell>
        <mxCell id="y5IsJQyIRW_9o38pP9EZ-71" value="" style="verticalLabelPosition=bottom;shadow=0;dashed=0;align=center;html=1;verticalAlign=top;strokeWidth=1;shape=mxgraph.mockup.graphics.simpleIcon;strokeColor=#999999;rounded=0;labelBackgroundColor=none;fontFamily=Verdana;fontSize=14;fontColor=#000000;comic=1;" parent="1" vertex="1">
          <mxGeometry x="826.5" y="236" width="225" height="150" as="geometry" />
        </mxCell>
        <mxCell id="FqUW4puc8MzxNFa7fC7m-1" value="Quick Links" style="text;html=1;points=[];align=left;verticalAlign=top;spacingTop=-4;fontSize=14;fontFamily=Verdana" vertex="1" parent="1">
          <mxGeometry x="520" y="699.5" width="80" height="20" as="geometry" />
        </mxCell>
        <mxCell id="FqUW4puc8MzxNFa7fC7m-2" value="Home&lt;div&gt;Cartpage&lt;/div&gt;&lt;div&gt;Login&lt;/div&gt;" style="text;html=1;points=[];align=left;verticalAlign=top;spacingTop=-4;fontSize=14;fontFamily=Verdana" vertex="1" parent="1">
          <mxGeometry x="520" y="719.5" width="170" height="20" as="geometry" />
        </mxCell>
        <mxCell id="FqUW4puc8MzxNFa7fC7m-3" value="Quick Links" style="text;html=1;points=[];align=left;verticalAlign=top;spacingTop=-4;fontSize=14;fontFamily=Verdana" vertex="1" parent="1">
          <mxGeometry x="1690" y="699.5" width="80" height="20" as="geometry" />
        </mxCell>
        <mxCell id="FqUW4puc8MzxNFa7fC7m-4" value="Home&lt;div&gt;Cartpage&lt;/div&gt;&lt;div&gt;Login&lt;/div&gt;" style="text;html=1;points=[];align=left;verticalAlign=top;spacingTop=-4;fontSize=14;fontFamily=Verdana" vertex="1" parent="1">
          <mxGeometry x="1690" y="719.5" width="170" height="20" as="geometry" />
        </mxCell>
      </root>
    </mxGraphModel>
  </diagram>
</mxfile>
